#!OML:ASF F:\VICON\USERDATA\Patient Classification 1\PLAYGROUND\JustinFriday\JustinFriday.ASF
:FULLY-SPECIFIED
:DEGREES
3630
root 39.7945 18.8887 -5.821 180.763 -55.7896 -169.867
lowerback 24.5758 4.81214 -2.53661
upperback 5.02055 5.17705 1.65352
thorax -8.46937 2.28641 1.68215
lowerneck -4.14874 3.6616 -4.65319
upperneck -13.0257 4.77013 2.17205
head -3.70806 2.3206 1.44144
rclavicle -1.07592e-014 1.88845e-015
rhumerus 21.9666 22.7158 -68.6702
rradius 80.5173
rwrist 1.99484
rhand -29.3669 -15.7584
rfingers 7.12502
rthumb -2.70607 -45.7209
lclavicle -1.07592e-014 1.88845e-015
lhumerus 26.3425 -5.42159 77.9875
lradius 32.8675
lwrist -31.7413
lhand -32.1101 -23.3839
lfingers 7.12502
lthumb -5.35504 6.52839
rfemur -70.162 5.46896 20.68
rtibia 90.768
rfoot -26.6476 -5.08943
rtoes -12.2576
lfemur -2.76971 -15.1418 -17.2267
ltibia 19.1288
lfoot 19.1653 -27.9592
ltoes 36.0453
3631
root 39.7758 18.891 -5.90801 181.114 -56.2784 -170.067
lowerback 24.4976 4.88319 -2.60579
upperback 5.00106 5.25816 1.61542
thorax -8.45769 2.32991 1.65658
lowerneck -4.49079 3.57835 -4.76167
upperneck -13.0267 4.68628 2.39772
head -3.65356 2.27425 1.54359
rclavicle 7.06928e-015 1.85615e-014
rhumerus 23.5203 23.1191 -67.7929
rradius 80.6065
rwrist 3.17247
rhand -30.0457 -17.2266
rfingers 7.12502
rthumb -3.36161 -47.1799
lclavicle 7.06928e-015 1.85615e-014
lhumerus 25.9962 -6.25512 77.6983
lradius 33.6024
lwrist -31.2504
lhand -32.3226 -23.472
lfingers 7.12502
lthumb -5.56018 6.43504
rfemur -70.3521 5.05522 20.9454
rtibia 91.2754
rfoot -26.5843 -4.82334
rtoes -10.0351
lfemur -2.72538 -15.3263 -17.1007
ltibia 18.9019
lfoot 19.9418 -27.8858
ltoes 36.4448
3632
root 39.7569 18.9019 -5.9915 181.17 -56.8273 -169.937
lowerback 24.5724 4.83902 -2.45606
upperback 4.92532 5.2407 1.55526
thorax -8.56001 2.32208 1.50409
lowerneck -4.67872 3.56189 -4.5176
upperneck -13.1113 4.66941 2.49294
head -3.64255 2.24797 1.53572
rclavicle 6.39838e-014 -4.67144e-014
rhumerus 25.2446 23.2106 -67.1592
rradius 80.4012
rwrist 3.25839
rhand -30.1339 -16.4335
rfingers 7.12502
rthumb -3.44673 -46.3854
lclavicle 6.39838e-014 -4.67144e-014
lhumerus 25.5828 -6.75286 77.3201
lradius 34.2333
lwrist -30.957
lhand -32.4707 -24.0215
lfingers 7.12502
lthumb -5.70317 5.88178
rfemur -70.4843 4.47897 21.4868
rtibia 91.7021
rfoot -26.4681 -5.08166
rtoes -9.79082
lfemur -2.60406 -15.6933 -16.7999
ltibia 18.5149
lfoot 20.5331 -27.7739
ltoes 35.9019
3633
root 39.734 18.9188 -6.0765 181.131 -57.3953 -169.634
lowerback 24.5713 4.7178 -2.30983
upperback 4.84081 5.13836 1.60483
thorax -8.64021 2.27667 1.50531
lowerneck -4.82307 3.64414 -4.27674
upperneck -13.1309 4.76282 2.33192
head -3.61235 2.28719 1.43942
rclavicle -2.51587e-014 1.4971e-014
rhumerus 27.1895 23.065 -66.7149
rradius 79.771
rwrist 1.36704
rhand -29.7302 -11.2148
rfingers 7.12502
rthumb -3.05688 -41.1727
lclavicle -2.51587e-014 1.4971e-014
lhumerus 25.2092 -6.67471 77.2234
lradius 34.517
lwrist -31.205
lhand -32.5968 -24.3569
lfingers 7.12502
lthumb -5.82497 5.54303
rfemur -70.6198 3.90957 22.0876
rtibia 91.9948
rfoot -26.2544 -5.34339
rtoes -9.94561
lfemur -2.49702 -16.0428 -16.3566
ltibia 17.9731
lfoot 20.9861 -27.9493
ltoes 34.8153
3634
root 39.709 18.9405 -6.16857 181.052 -57.8911 -169.349
lowerback 24.8909 4.56942 -2.0424
upperback 4.57991 5.02503 1.53514
thorax -9.06081 2.22557 1.28652
lowerneck -4.82547 3.79551 -3.9888
upperneck -13.0125 4.95546 2.17952
head -3.56137 2.37785 1.33405
rclavicle 6.22693e-014 -9.16894e-015
rhumerus 28.8053 24.1765 -65.8751
rradius 79.5644
rwrist 2.65671
rhand -31.4664 -14.1768
rfingers 7.12502
rthumb -4.7335 -44.1039
lclavicle 6.22693e-014 -9.16894e-015
lhumerus 24.7284 -6.99354 76.8342
lradius 34.7681
lwrist -31.2399
lhand -33.5103 -23.6435
lfingers 7.12502
lthumb -6.70684 6.23029
rfemur -70.5935 3.55987 22.5884
rtibia 92.1828
rfoot -25.978 -5.5162
rtoes -10.3517
lfemur -2.25441 -16.4544 -15.9359
ltibia 17.3604
lfoot 21.5304 -27.9026
ltoes 34.563
3635
root 39.685 18.9591 -6.25999 181.2 -58.2507 -169.34
lowerback 25.821 4.35612 -1.51947
upperback 3.93849 4.86483 1.0073
thorax -10.1633 2.14101 0.383507
lowerneck -5.25547 3.75723 -4.24662
upperneck -12.294 5.04015 3.32297
head -3.28598 2.40832 1.76715
rclavicle -2.93207e-014 -2.8625e-014
rhumerus 29.7099 24.8475 -66.1493
rradius 79.0628
rwrist 3.81684
rhand -32.2584 -14.8673
rfingers 7.12502
rthumb -5.49819 -44.7759
lclavicle -2.93207e-014 -2.8625e-014
lhumerus 24.0826 -8.17427 75.5936
lradius 34.9141
lwrist -30.6709
lhand -34.6295 -22.7533
lfingers 7.12502
lthumb -7.78714 7.08331
rfemur -70.5218 3.386 22.9153
rtibia 92.3154
rfoot -25.7699 -5.7441
rtoes -10.3225
lfemur -1.91705 -16.8994 -15.7202
ltibia 16.6118
lfoot 21.8558 -27.6503
ltoes 34.3733
3636
root 39.658 18.9739 -6.34752 181.582 -58.5552 -169.462
lowerback 25.2059 4.46494 -1.82837
upperback 4.19094 4.94416 1.19668
thorax -9.60586 2.19203 0.785499
lowerneck -4.67702 3.98764 -3.46058
upperneck -13.3895 5.20262 2.24913
head -3.71459 2.46619 1.25657
rclavicle -1.91827e-014 1.28713e-014
rhumerus 32.1225 25.111 -65.0514
rradius 78.2571
rwrist 4.40841
rhand -32.5918 -14.3225
rfingers 7.12502
rthumb -5.82009 -44.2225
lclavicle -1.91827e-014 1.28713e-014
lhumerus 24.34 -8.7964 75.1706
lradius 35.0097
lwrist -29.9235
lhand -34.9221 -23.2461
lfingers 7.12502
lthumb -8.06956 6.57981
rfemur -70.6096 3.23335 23.1511
rtibia 92.4267
rfoot -25.6161 -6.04488
rtoes -9.91768
lfemur -1.66074 -17.1915 -15.5668
ltibia 15.7574
lfoot 22.3997 -27.3552
ltoes 34.0928
3637
root 39.6275 18.9915 -6.44051 181.635 -58.9041 -169.301
lowerback 25.2185 4.52385 -1.5403
upperback 4.06254 5.09508 1.03877
thorax -9.72104 2.25676 0.391206
lowerneck -4.52043 3.75279 -3.48298
upperneck -13.8389 4.90172 2.56517
head -3.90621 2.29673 1.37034
rclavicle 1.06698e-013 -3.80673e-014
rhumerus 33.8796 24.8255 -64.468
rradius 77.5841
rwrist 4.49006
rhand -31.9016 -13.9721
rfingers 7.12502
rthumb -5.15373 -43.8895
lclavicle 1.06698e-013 -3.80673e-014
lhumerus 24.1509 -8.59992 75.6439
lradius 34.6419
lwrist -30.9925
lhand -35.0309 -24.8336
lfingers 7.12502
lthumb -8.17456 4.98828
rfemur -70.5299 3.02981 23.5474
rtibia 92.4738
rfoot -25.6323 -6.09919
rtoes -9.07995
lfemur -1.32001 -17.4793 -15.2677
ltibia 14.9872
lfoot 23.3557 -26.8262
ltoes 34.1921
3638
root 39.5954 19.0171 -6.53386 181.046 -59.2757 -168.559
lowerback 25.6265 4.65005 -0.795596
upperback 3.80806 5.44777 0.819394
thorax -10.1357 2.39357 -0.427502
lowerneck -4.42398 3.52687 -2.9568
upperneck -13.9381 4.60192 2.68284
head -3.93393 2.11558 1.32319
rclavicle 9.71063e-014 -2.09718e-014
rhumerus 35.25 23.9677 -63.6674
rradius 77.0238
rwrist 5.0367
rhand -30.21 -13.8084
rfingers 7.12502
rthumb -3.52023 -43.759
lclavicle 9.71063e-014 -2.09718e-014
lhumerus 23.3665 -14.0248 71.6635
lradius 36.891
lwrist -25.7045
lhand -35.1988 -23.493
lfingers 7.12502
lthumb -8.3366 6.32246
rfemur -70.0847 2.90092 24.2418
rtibia 92.3747
rfoot -25.8033 -6.14762
rtoes -8.42781
lfemur -0.888463 -17.8361 -14.6828
ltibia 14.2909
lfoot 24.2817 -26.1615
ltoes 34.0654
3639
root 39.5595 19.0468 -6.61999 180.514 -59.7431 -167.886
lowerback 25.5574 4.76351 -0.418391
upperback 3.88323 5.70736 0.957026
thorax -9.99439 2.50397 -0.566751
lowerneck -4.58529 3.45224 -2.97386
upperneck -14.0655 4.49721 2.66801
head -3.94611 2.06219 1.32614
rclavicle 1.26477e-014 4.27387e-015
rhumerus 36.7628 23.8272 -62.7057
rradius 76.3737
rwrist 6.30189
rhand -29.6225 -13.7747
rfingers 7.12502
rthumb -2.95294 -43.734
lclavicle 1.26477e-014 4.27387e-015
lhumerus 23.5191 -14.6542 71.8348
lradius 36.7746
lwrist -25.588
lhand -35.2041 -24.2631
lfingers 7.12502
lthumb -8.34171 5.55217
rfemur -69.5706 2.62961 24.8456
rtibia 92.2077
rfoot -26.1241 -5.98812
rtoes -7.29225
lfemur -0.488563 -18.1006 -14.1669
ltibia 13.5003
lfoot 25.1961 -25.5502
ltoes 33.619
3640
root 39.5222 19.0752 -6.70451 180.352 -60.3545 -167.684
lowerback 24.1709 5.20228 -1.21516
upperback 4.88444 6.10837 2.0501
thorax -8.37029 2.72372 1.09207
lowerneck -4.0571 3.65829 -3.02728
upperneck -15.8002 4.48053 0.630773
head -4.61785 2.10544 0.637453
rclavicle -7.50412e-014 8.54774e-015
rhumerus 39.4255 23.9591 -60.2404
rradius 75.5537
rwrist 7.75948
rhand -29.6576 -13.5804
rfingers 7.12502
rthumb -2.98677 -43.5392
lclavicle -7.50412e-014 8.54774e-015
lhumerus 24.3495 -11.0782 76.3134
lradius 35.8918
lwrist -29.3924
lhand -35.1355 -26.444
lfingers 7.12502
lthumb -8.27549 3.37394
rfemur -69.0022 2.11833 25.1793
rtibia 91.995
rfoot -26.5745 -5.90702
rtoes -6.53052
lfemur -0.100849 -18.0583 -13.906
ltibia 12.6507
lfoot 26.4286 -25.1547
ltoes 33.4013
3641
root 39.4886 19.1052 -6.79326 180.29 -60.9417 -167.545
lowerback 24.4184 5.15271 -1.19962
upperback 4.81559 6.065 2.20199
thorax -8.589 2.70371 1.2437
lowerneck -4.73832 3.40592 -3.47495
upperneck -15.3653 4.23672 1.30054
head -4.35587 1.98272 0.961663
rclavicle 2.8625e-014 -3.47873e-014
rhumerus 40.9272 24.4262 -59.621
rradius 74.5959
rwrist 9.15381
rhand -29.3926 -13.2324
rfingers 7.12502
rthumb -2.73085 -43.1947
lclavicle 2.8625e-014 -3.47873e-014
lhumerus 23.7338 -10.9873 76.6584
lradius 36.098
lwrist -29.2088
lhand -35.5014 -27.5012
lfingers 7.12502
lthumb -8.62866 2.30243
rfemur -68.406 1.76967 25.4448
rtibia 91.6852
rfoot -26.8795 -6.76645
rtoes -8.8072
lfemur 0.223568 -17.9161 -13.5956
ltibia 11.7535
lfoot 28.4753 -24.3339
ltoes 33.15
3642
root 39.4544 19.1391 -6.88777 180.552 -61.3513 -167.557
lowerback 24.4139 5.20388 -1.33979
upperback 4.71317 6.11998 2.28444
thorax -8.72757 2.73971 1.39065
lowerneck -5.17939 3.278 -3.85437
upperneck -15.0749 4.13455 1.75711
head -4.18962 1.93718 1.19149
rclavicle 9.38264e-014 2.82274e-014
rhumerus 42.5396 24.7024 -58.6351
rradius 73.5316
rwrist 9.79671
rhand -29.1338 -13.2848
rfingers 7.12502
rthumb -2.48095 -43.2501
lclavicle 9.38264e-014 2.82274e-014
lhumerus 23.1145 -11.109 76.8031
lradius 36.5265
lwrist -28.9573
lhand -35.6156 -28.1473
lfingers 7.12502
lthumb -8.73882 1.6518
rfemur -68.0232 1.75669 25.5736
rtibia 91.3232
rfoot -27.15 -7.53409
rtoes -10.6483
lfemur 0.499142 -17.9524 -13.3332
ltibia 10.6438
lfoot 30.7391 -22.7299
ltoes 32.7501
